# stone_door_frame_4x4
v -2 -2 0.15
v -1.1 -2 0.15
v -2 2 0.15
v -1.1 2 0.15
v -1.1 -2 0.15
v -1.1 -2 -0.15
v -1.1 2 0.15
v -1.1 2 -0.15
v -1.1 -2 -0.15
v -2 -2 -0.15
v -1.1 2 -0.15
v -2 2 -0.15
v -2 -2 -0.15
v -2 -2 0.15
v -2 2 -0.15
v -2 2 0.15
v -2 2 0.15
v -1.1 2 0.15
v -2 2 -0.15
v -1.1 2 -0.15
v -2 -2 -0.15
v -1.1 -2 -0.15
v -2 -2 0.15
v -1.1 -2 0.15
v 1.1 -2 0.15
v 2 -2 0.15
v 1.1 2 0.15
v 2 2 0.15
v 2 -2 0.15
v 2 -2 -0.15
v 2 2 0.15
v 2 2 -0.15
v 2 -2 -0.15
v 1.1 -2 -0.15
v 2 2 -0.15
v 1.1 2 -0.15
v 1.1 -2 -0.15
v 1.1 -2 0.15
v 1.1 2 -0.15
v 1.1 2 0.15
v 1.1 2 0.15
v 2 2 0.15
v 1.1 2 -0.15
v 2 2 -0.15
v 1.1 -2 -0.15
v 2 -2 -0.15
v 1.1 -2 0.15
v 2 -2 0.15
v -1.1 1.2 0.15
v 1.1 1.2 0.15
v -1.1 2 0.15
v 1.1 2 0.15
v 1.1 1.2 0.15
v 1.1 1.2 -0.15
v 1.1 2 0.15
v 1.1 2 -0.15
v 1.1 1.2 -0.15
v -1.1 1.2 -0.15
v 1.1 2 -0.15
v -1.1 2 -0.15
v -1.1 1.2 -0.15
v -1.1 1.2 0.15
v -1.1 2 -0.15
v -1.1 2 0.15
v -1.1 2 0.15
v 1.1 2 0.15
v -1.1 2 -0.15
v 1.1 2 -0.15
v -1.1 1.2 -0.15
v 1.1 1.2 -0.15
v -1.1 1.2 0.15
v 1.1 1.2 0.15
vn 0 0 1
vn 0 0 1
vn 0 0 1
vn 0 0 1
vn 1 0 0
vn 1 0 0
vn 1 0 0
vn 1 0 0
vn 0 0 -1
vn 0 0 -1
vn 0 0 -1
vn 0 0 -1
vn -1 0 0
vn -1 0 0
vn -1 0 0
vn -1 0 0
vn 0 1 0
vn 0 1 0
vn 0 1 0
vn 0 1 0
vn 0 -1 0
vn 0 -1 0
vn 0 -1 0
vn 0 -1 0
vn 0 0 1
vn 0 0 1
vn 0 0 1
vn 0 0 1
vn 1 0 0
vn 1 0 0
vn 1 0 0
vn 1 0 0
vn 0 0 -1
vn 0 0 -1
vn 0 0 -1
vn 0 0 -1
vn -1 0 0
vn -1 0 0
vn -1 0 0
vn -1 0 0
vn 0 1 0
vn 0 1 0
vn 0 1 0
vn 0 1 0
vn 0 -1 0
vn 0 -1 0
vn 0 -1 0
vn 0 -1 0
vn 0 0 1
vn 0 0 1
vn 0 0 1
vn 0 0 1
vn 1 0 0
vn 1 0 0
vn 1 0 0
vn 1 0 0
vn 0 0 -1
vn 0 0 -1
vn 0 0 -1
vn 0 0 -1
vn -1 0 0
vn -1 0 0
vn -1 0 0
vn -1 0 0
vn 0 1 0
vn 0 1 0
vn 0 1 0
vn 0 1 0
vn 0 -1 0
vn 0 -1 0
vn 0 -1 0
vn 0 -1 0
vt 2.5 0.5
vt 1.6 0.5
vt 2.5 4.5
vt 1.6 4.5
vt 0.65 0.5
vt 0.35 0.5
vt 0.65 4.5
vt 0.35 4.5
vt -0.5999999 0.5
vt -1.5 0.5
vt -0.5999999 4.5
vt -1.5 4.5
vt 0.65 0.5
vt 0.35 0.5
vt 0.65 4.5
vt 0.35 4.5
vt -1.5 0.65
vt -0.5999999 0.65
vt -1.5 0.35
vt -0.5999999 0.35
vt 2.5 0.35
vt 1.6 0.35
vt 2.5 0.65
vt 1.6 0.65
vt -0.5999999 0.5
vt -1.5 0.5
vt -0.5999999 4.5
vt -1.5 4.5
vt 0.65 0.5
vt 0.35 0.5
vt 0.65 4.5
vt 0.35 4.5
vt 2.5 0.5
vt 1.6 0.5
vt 2.5 4.5
vt 1.6 4.5
vt 0.65 0.5
vt 0.35 0.5
vt 0.65 4.5
vt 0.35 4.5
vt 1.6 0.65
vt 2.5 0.65
vt 1.6 0.35
vt 2.5 0.35
vt -0.5999999 0.35
vt -1.5 0.35
vt -0.5999999 0.65
vt -1.5 0.65
vt 1.6 3.7
vt -0.6 3.7
vt 1.6 4.5
vt -0.6 4.5
vt 0.65 3.7
vt 0.35 3.7
vt 0.65 4.5
vt 0.35 4.5
vt 1.6 3.7
vt -0.6 3.7
vt 1.6 4.5
vt -0.6 4.5
vt 0.65 3.7
vt 0.35 3.7
vt 0.65 4.5
vt 0.35 4.5
vt -0.6 0.65
vt 1.6 0.65
vt -0.6 0.35
vt 1.6 0.35
vt 1.6 0.35
vt -0.6 0.35
vt 1.6 0.65
vt -0.6 0.65
f 1/1/1 2/2/2 3/3/3
f 2/2/2 4/4/4 3/3/3
f 5/5/5 6/6/6 7/7/7
f 6/6/6 8/8/8 7/7/7
f 9/9/9 10/10/10 11/11/11
f 10/10/10 12/12/12 11/11/11
f 13/13/13 14/14/14 15/15/15
f 14/14/14 16/16/16 15/15/15
f 17/17/17 18/18/18 19/19/19
f 18/18/18 20/20/20 19/19/19
f 21/21/21 22/22/22 23/23/23
f 22/22/22 24/24/24 23/23/23
f 25/25/25 26/26/26 27/27/27
f 26/26/26 28/28/28 27/27/27
f 29/29/29 30/30/30 31/31/31
f 30/30/30 32/32/32 31/31/31
f 33/33/33 34/34/34 35/35/35
f 34/34/34 36/36/36 35/35/35
f 37/37/37 38/38/38 39/39/39
f 38/38/38 40/40/40 39/39/39
f 41/41/41 42/42/42 43/43/43
f 42/42/42 44/44/44 43/43/43
f 45/45/45 46/46/46 47/47/47
f 46/46/46 48/48/48 47/47/47
f 49/49/49 50/50/50 51/51/51
f 50/50/50 52/52/52 51/51/51
f 53/53/53 54/54/54 55/55/55
f 54/54/54 56/56/56 55/55/55
f 57/57/57 58/58/58 59/59/59
f 58/58/58 60/60/60 59/59/59
f 61/61/61 62/62/62 63/63/63
f 62/62/62 64/64/64 63/63/63
f 65/65/65 66/66/66 67/67/67
f 66/66/66 68/68/68 67/67/67
f 69/69/69 70/70/70 71/71/71
f 70/70/70 72/72/72 71/71/71
