# stone_ramp_4x4
v -2 -2 -2
v -2 -2 2
v -2 2 2
v 2 2 2
v 2 -2 2
v 2 -2 -2
v 2 -2 -2
v 2 -2 2
v -2 -2 2
v -2 -2 -2
v 2 -2 2
v 2 2 2
v -2 2 2
v -2 -2 2
v 2 2 2
v 2 -2 -2
v -2 -2 -2
v -2 2 2
vn -1 0 0
vn -1 0 0
vn -1 0 0
vn 1 0 0
vn 1 0 0
vn 1 0 0
vn 0 -1 0
vn 0 -1 0
vn 0 -1 0
vn 0 -1 0
vn 0 0 1
vn 0 0 1
vn 0 0 1
vn 0 0 1
vn 0 0.7071068 -0.7071068
vn 0 0.7071068 -0.7071068
vn 0 0.7071068 -0.7071068
vn 0 0.7071068 -0.7071068
vt 2 0
vt -2 0
vt -2 4
vt 2 4
vt 2 0
vt -2 0
vt -2 -2
vt -2 2
vt 2 2
vt 2 -2
vt -2 0
vt -2 4
vt 2 4
vt 2 0
vt 2 4.242641
vt 2 -1.414214
vt -2 -1.414214
vt -2 4.242641
f 1/1/1 2/2/2 3/3/3
f 4/4/4 5/5/5 6/6/6
f 7/7/7 8/8/8 9/9/9
f 7/7/7 9/9/9 10/10/10
f 11/11/11 12/12/12 13/13/13
f 11/11/11 13/13/13 14/14/14
f 15/15/15 16/16/16 17/17/17
f 15/15/15 17/17/17 18/18/18
